<?xml version="1.0" standalone="no"?>
<!DOCTYPE svg PUBLIC "-//W3C//DTD SVG 20010904//EN"
 "http://www.w3.org/TR/2001/REC-SVG-20010904/DTD/svg10.dtd">
<svg version="1.0" xmlns="http://www.w3.org/2000/svg"
 width="270.000000pt" height="124.000000pt" viewBox="0 0 270.000000 124.000000"
 preserveAspectRatio="xMidYMid meet">

<g transform="translate(0.000000,124.000000) scale(0.100000,-0.100000)"
fill="#000000" stroke="none">
<path d="M560 1129 c-100 -20 -170 -105 -170 -207 0 -29 7 -69 16 -88 24 -51
88 -100 146 -114 175 -42 320 82 288 246 -24 117 -148 190 -280 163z m119
-136 c12 -14 24 -37 27 -49 9 -37 -14 -93 -46 -109 -35 -18 -51 -19 -83 -4
-52 24 -65 122 -22 164 35 36 96 35 124 -2z"/>
<path d="M575 965 c-14 -13 -25 -31 -25 -40 0 -21 44 -65 65 -65 21 0 65 44
65 65 0 21 -44 65 -65 65 -9 0 -27 -11 -40 -25z"/>
<path d="M37 1123 c-4 -3 -7 -96 -7 -205 l0 -198 70 0 70 0 0 65 0 65 85 0 85
0 0 50 0 50 -85 0 -85 0 0 35 0 35 95 0 95 0 0 55 0 55 -158 0 c-87 0 -162 -3
-165 -7z"/>
<path d="M898 1124 c-5 -4 -8 -97 -8 -206 l0 -198 70 0 70 0 0 50 c0 43 3 50
20 50 13 0 31 -18 52 -50 l33 -50 74 0 73 0 -17 28 c-10 15 -28 42 -41 61
l-23 34 30 24 c77 65 52 190 -51 244 -28 14 -270 26 -282 13z m226 -120 c19
-18 20 -28 6 -55 -8 -14 -21 -19 -55 -19 l-45 0 0 45 0 45 39 0 c23 0 46 -7
55 -16z"/>
<path d="M1290 1075 l0 -55 60 0 60 0 0 -150 0 -150 70 0 70 0 0 150 0 150 61
0 60 0 -3 53 -3 52 -187 3 -188 2 0 -55z"/>
<path d="M1694 1115 c-3 -8 -4 -74 -2 -147 3 -149 15 -184 77 -225 62 -42 180
-42 242 0 64 43 74 74 74 237 l0 145 -65 0 -65 0 -5 -138 c-4 -122 -7 -140
-24 -153 -27 -19 -52 -18 -76 6 -18 18 -20 33 -20 155 l0 135 -65 0 c-49 0
-67 -4 -71 -15z"/>
<path d="M1753 591 c-24 -4 -45 -9 -47 -12 -2 -2 -7 -25 -11 -50 l-7 -47 84 5
c70 5 87 3 101 -11 9 -10 17 -21 17 -26 0 -17 -81 -109 -154 -176 -74 -67 -76
-70 -76 -116 l0 -48 190 0 190 0 0 50 0 50 -91 0 -90 0 65 65 c88 88 128 148
134 201 4 39 1 47 -27 73 -48 45 -156 61 -278 42z"/>
<path d="M37 503 c-4 -3 -7 -96 -7 -205 l0 -198 70 0 70 0 0 65 0 65 85 0 85
0 0 50 0 50 -85 0 -85 0 0 35 0 35 95 0 95 0 0 55 0 55 -158 0 c-87 0 -162 -3
-165 -7z"/>
<path d="M410 305 l0 -205 161 0 160 0 -3 52 -3 53 -92 3 -93 3 0 149 0 150
-65 0 -65 0 0 -205z"/>
<path d="M767 503 c-4 -3 -7 -96 -7 -205 l0 -198 170 0 170 0 0 50 0 50 -100
0 -100 0 0 30 0 30 85 0 85 0 0 50 0 50 -85 0 c-78 0 -85 2 -85 20 0 19 7 20
95 20 l95 0 0 55 0 55 -158 0 c-87 0 -162 -3 -165 -7z"/>
<path d="M1126 498 c5 -7 33 -49 64 -93 31 -44 59 -85 63 -91 4 -6 -17 -45
-47 -86 -29 -41 -61 -86 -71 -101 l-17 -27 76 0 77 0 31 50 c17 28 34 50 37
50 3 0 21 -23 39 -50 l32 -50 76 0 76 0 -17 27 c-10 15 -42 60 -72 102 -29 41
-52 80 -49 86 2 7 32 50 65 97 34 47 61 88 61 92 0 3 -31 6 -69 6 l-69 0 -32
-50 c-18 -27 -35 -50 -39 -50 -3 0 -21 23 -39 50 l-32 50 -76 0 c-57 0 -73 -3
-68 -12z"/>
</g>
</svg>
